<svg xmlns="http://www.w3.org/2000/svg"><defs>
<symbol id="i-home" viewBox="0 0 24 24"><path d="m3 11 9-8 9 8v9a1 1 0 0 1-1 1h-5v-7H9v7H4a1 1 0 0 1-1-1z" fill="none" stroke="currentColor" stroke-linejoin="round" stroke-width="1.75"/></symbol>
<symbol id="i-gallery" viewBox="0 0 24 24"><rect x="3" y="3" width="18" height="18" rx="3" fill="none" stroke="currentColor" stroke-width="1.75"/><circle cx="8" cy="9" r="2" fill="none" stroke="currentColor" stroke-width="1.75"/><path d="m3 17 5-5 4 4 3-3 6 6" fill="none" stroke="currentColor" stroke-width="1.75"/></symbol>
<symbol id="i-spark" viewBox="0 0 24 24"><path d="m12 2 2.7 7.3L22 12l-7.3 2.7L12 22l-2.7-7.3L2 12l7.3-2.7z" fill="none" stroke="currentColor" stroke-linejoin="round" stroke-width="1.75"/></symbol>
<symbol id="i-user" viewBox="0 0 24 24"><circle cx="12" cy="8" r="4" fill="none" stroke="currentColor" stroke-width="1.75"/><path d="M4 21c0-5 3.5-7 8-7s8 2 8 7" fill="none" stroke="currentColor" stroke-width="1.75"/></symbol>
<symbol id="i-arrow" viewBox="0 0 24 24"><path d="M4 12h16m-7-7 7 7-7 7" fill="none" stroke="currentColor" stroke-width="1.75" stroke-linecap="round" stroke-linejoin="round"/></symbol>
<symbol id="i-upload" viewBox="0 0 24 24"><path d="M12 16V3m-5 5 5-5 5 5M4 16v4h16v-4" fill="none" stroke="currentColor" stroke-width="1.75" stroke-linecap="round" stroke-linejoin="round"/></symbol>
<symbol id="i-lock" viewBox="0 0 24 24"><rect x="4" y="10" width="16" height="11" rx="2" fill="none" stroke="currentColor" stroke-width="1.75"/><path d="M8 10V7a4 4 0 0 1 8 0v3" fill="none" stroke="currentColor" stroke-width="1.75"/></symbol>
<symbol id="i-photo" viewBox="0 0 24 24"><rect x="2" y="4" width="20" height="16" rx="3" fill="none" stroke="currentColor" stroke-width="1.75"/><circle cx="8" cy="9" r="2" fill="none" stroke="currentColor" stroke-width="1.75"/><path d="m2 18 7-6 4 3 4-4 5 7" fill="none" stroke="currentColor" stroke-width="1.75"/></symbol>
<symbol id="i-heart" viewBox="0 0 24 24"><path d="M12 21 3.6 12.8A5.5 5.5 0 0 1 12 5.6a5.5 5.5 0 0 1 8.4 7.2z" fill="none" stroke="currentColor" stroke-width="1.75"/></symbol>
<symbol id="i-check" viewBox="0 0 24 24"><path d="m4 12 5 5L20 6" fill="none" stroke="currentColor" stroke-width="1.75" stroke-linecap="round" stroke-linejoin="round"/></symbol>
<symbol id="i-settings" viewBox="0 0 24 24"><path d="m12 2 9 5v10l-9 5-9-5V7z" fill="none" stroke="currentColor" stroke-width="1.75"/><path d="m12 7 1.5 2 2.5 1-.8 2 .8 2-2.5 1-1.5 2-1.5-2-2.5-1 .8-2-.8-2 2.5-1z" fill="none" stroke="currentColor" stroke-width="1.75"/></symbol><symbol id="i-star" viewBox="0 0 24 24"><path d="m12 2 3 6 7 1-5 5 1 7-6-3-6 3 1-7-5-5 7-1z" fill="none" stroke="currentColor" stroke-width="1.75" stroke-linecap="round" stroke-linejoin="round"/></symbol><symbol id="i-plus" viewBox="0 0 24 24"><path d="M12 3v18M3 12h18" fill="none" stroke="currentColor" stroke-width="1.75" stroke-linecap="round" stroke-linejoin="round"/></symbol><symbol id="i-grid" viewBox="0 0 24 24"><path d="M3 3h7v7H3zM14 3h7v7h-7zM3 14h7v7H3zM14 14h7v7h-7z" fill="none" stroke="currentColor" stroke-width="1.75" stroke-linecap="round" stroke-linejoin="round"/></symbol><symbol id="i-trash" viewBox="0 0 24 24"><path d="M4 6h16M9 3h6M6 6l1 15h10l1-15M10 9v8m4-8v8" fill="none" stroke="currentColor" stroke-width="1.75" stroke-linecap="round" stroke-linejoin="round"/></symbol><symbol id="i-hanger" viewBox="0 0 24 24"><path d="M9 6a3 3 0 0 1 6 0c0 2-3 2-3 5l9 6v3H3v-3l9-6" fill="none" stroke="currentColor" stroke-width="1.75" stroke-linecap="round" stroke-linejoin="round"/></symbol><symbol id="i-bulb" viewBox="0 0 24 24"><path d="M9 18h6M9 21h6M8 14a6 6 0 1 1 8 0l-1 3H9z" fill="none" stroke="currentColor" stroke-width="1.75" stroke-linecap="round" stroke-linejoin="round"/></symbol><symbol id="i-edit" viewBox="0 0 24 24"><path d="m4 16 12-12 4 4-12 12-5 1zM14 6l4 4" fill="none" stroke="currentColor" stroke-width="1.75" stroke-linecap="round" stroke-linejoin="round"/></symbol><symbol id="i-shield" viewBox="0 0 24 24"><path d="m12 2 9 3v7c0 5-9 10-9 10S3 17 3 12V5z" fill="none" stroke="currentColor" stroke-width="1.75" stroke-linecap="round" stroke-linejoin="round"/></symbol><symbol id="i-bell" viewBox="0 0 24 24"><path d="M5 17h14l-2-4V8a5 5 0 0 0-10 0v5zM10 21h4" fill="none" stroke="currentColor" stroke-width="1.75" stroke-linecap="round" stroke-linejoin="round"/></symbol><symbol id="i-palette" viewBox="0 0 24 24"><path d="M12 3a9 9 0 1 0 0 18h2c2 0 2-3 0-4-2-1-1-3 1-3h3c5 0 4-11-6-11zM7 8h.1M12 6h.1M17 8h.1M6 13h.1" fill="none" stroke="currentColor" stroke-width="1.75" stroke-linecap="round" stroke-linejoin="round"/></symbol><symbol id="i-gift" viewBox="0 0 24 24"><path d="M3 8h18v13H3zM2 8h20v4H2zM12 8v13M12 8S3 7 5 3c2-3 7 5 7 5s9-1 7-5c-2-3-7 5-7 5z" fill="none" stroke="currentColor" stroke-width="1.75" stroke-linecap="round" stroke-linejoin="round"/></symbol><symbol id="i-help" viewBox="0 0 24 24"><path d="M9 8a3 3 0 0 1 6 0c0 2-3 2-3 5M12 17h.1M12 2a10 10 0 1 0 .1 0" fill="none" stroke="currentColor" stroke-width="1.75" stroke-linecap="round" stroke-linejoin="round"/></symbol><symbol id="i-logout" viewBox="0 0 24 24"><path d="M9 3H3v18h6M10 12h11m-5-5 5 5-5 5" fill="none" stroke="currentColor" stroke-width="1.75" stroke-linecap="round" stroke-linejoin="round"/></symbol><symbol id="i-wand" viewBox="0 0 24 24"><path d="m3 18 10-10 3 3L6 21zM17 2v4m-2-2h4M6 5v4M4 7h4M19 17v4m-2-2h4" fill="none" stroke="currentColor" stroke-width="1.75" stroke-linecap="round" stroke-linejoin="round"/></symbol><symbol id="i-layers" viewBox="0 0 24 24"><path d="m2 8 10-6 10 6-10 6zM2 13l10 6 10-6M2 17l10 5 10-5" fill="none" stroke="currentColor" stroke-width="1.75" stroke-linecap="round" stroke-linejoin="round"/></symbol><symbol id="i-share" viewBox="0 0 24 24"><path d="M6 12 18 5M6 12l12 7M3 12a3 3 0 1 0 6 0 3 3 0 1 0-6 0M15 4a3 3 0 1 0 6 0 3 3 0 1 0-6 0M15 20a3 3 0 1 0 6 0 3 3 0 1 0-6 0" fill="none" stroke="currentColor" stroke-width="1.75" stroke-linecap="round" stroke-linejoin="round"/></symbol><symbol id="i-download" viewBox="0 0 24 24"><path d="M12 3v12m-5-5 5 5 5-5M3 17v4h18v-4" fill="none" stroke="currentColor" stroke-width="1.75" stroke-linecap="round" stroke-linejoin="round"/></symbol><symbol id="i-camera" viewBox="0 0 24 24"><path d="M3 7h4l2-3h6l2 3h4v14H3z M12 10a4 4 0 1 0 0 8 4 4 0 1 0 0-8" fill="none" stroke="currentColor" stroke-width="1.75" stroke-linecap="round" stroke-linejoin="round"/></symbol><symbol id="i-refresh" viewBox="0 0 24 24"><path d="M20 8a8 8 0 0 0-14-3L3 8m0-5v5h5 M4 16a8 8 0 0 0 14 3l3-3m0 5v-5h-5" fill="none" stroke="currentColor" stroke-width="1.75" stroke-linecap="round" stroke-linejoin="round"/></symbol><symbol id="i-close" viewBox="0 0 24 24"><path d="m6 6 12 12M6 18 18 6" fill="none" stroke="currentColor" stroke-width="1.75" stroke-linecap="round" stroke-linejoin="round"/></symbol><symbol id="i-clock" viewBox="0 0 24 24"><path d="M12 3a9 9 0 1 0 0 18 9 9 0 1 0 0-18 M12 7v5l3 2" fill="none" stroke="currentColor" stroke-width="1.75" stroke-linecap="round" stroke-linejoin="round"/></symbol><symbol id="i-mail" viewBox="0 0 24 24"><path d="M3 5h18v14H3z m0 1 9 7 9-7" fill="none" stroke="currentColor" stroke-width="1.75" stroke-linecap="round" stroke-linejoin="round"/></symbol><symbol id="i-book" viewBox="0 0 24 24"><path d="M12 5v16M3 4c4-1 6 0 9 2 3-2 5-3 9-2v15c-4-1-6 0-9 2-3-2-5-3-9-2z" fill="none" stroke="currentColor" stroke-width="1.75" stroke-linecap="round" stroke-linejoin="round"/></symbol><symbol id="i-robot" viewBox="0 0 24 24"><path d="M5 7h14v14H5z M12 3v4M10 3h4M2 11v6m20-6v6M8 11h1m6 0h1M9 17h6" fill="none" stroke="currentColor" stroke-width="1.75" stroke-linecap="round" stroke-linejoin="round"/></symbol><symbol id="i-card" viewBox="0 0 24 24"><path d="M3 5h18v14H3zM3 9h18M6 15h4" fill="none" stroke="currentColor" stroke-width="1.75" stroke-linecap="round" stroke-linejoin="round"/></symbol><symbol id="i-eye" viewBox="0 0 24 24"><path d="M2 12s4-7 10-7 10 7 10 7-4 7-10 7-10-7-10-7zM12 9a3 3 0 1 0 0 6 3 3 0 1 0 0-6" fill="none" stroke="currentColor" stroke-width="1.75" stroke-linecap="round" stroke-linejoin="round"/></symbol><symbol id="i-alert" viewBox="0 0 24 24"><path d="m12 3 10 18H2zM12 9v5m0 3h.01" fill="none" stroke="currentColor" stroke-width="1.75" stroke-linecap="round" stroke-linejoin="round"/></symbol><symbol id="i-chevron" viewBox="0 0 24 24"><path d="m9 5 7 7-7 7" fill="none" stroke="currentColor" stroke-width="1.75" stroke-linecap="round" stroke-linejoin="round"/></symbol><symbol id="i-menu" viewBox="0 0 24 24"><path d="M5 5h.01M12 5h.01M19 5h.01" fill="none" stroke="currentColor" stroke-width="1.75" stroke-linecap="round" stroke-linejoin="round"/></symbol><symbol id="i-save" viewBox="0 0 24 24"><path d="M4 3h13l4 4v14H3V3z M7 3v6h9V3M7 21v-8h10v8" fill="none" stroke="currentColor" stroke-width="1.75" stroke-linecap="round" stroke-linejoin="round"/></symbol></defs></svg>